<svg xmlns="http://www.w3.org/2000/svg" width="70.867" height="56.693" viewBox="0 0 70.867 56.693">
  <g id="logo" transform="translate(0)">
    <path id="パス_1" data-name="パス 1" d="M903.694,150.119l-2.25-8.512-17.1-16.724h0l-3.228-3.156h0l-.014-.014-3.228,3.156.014.014-3.228,3.156-.014-.014-3.228,3.156.014.014,0,0,3.228,3.156,0,0L894.035,153.3l-3.228,3.156-17.14-16.761-8.7-2.2,25.821,25.25h0l.024.024,9.676-9.462-.024-.024.007-.007L877.887,131.2l3.228-3.156Z" transform="translate(-850.923 -121.713)" fill="#002076"/>
    <path id="パス_2" data-name="パス 2" d="M857.3,173.589a2.312,2.312,0,0,1,.479.77,2.805,2.805,0,0,1,.154.974,2.748,2.748,0,0,1-1,2.18,3.678,3.678,0,0,1-2.481.858,4.663,4.663,0,0,1-1.367-.208,5.305,5.305,0,0,1-1.179-.5l-.31.513h-.575l-.1-3.418h.583a7.4,7.4,0,0,0,.421,1.143,3.965,3.965,0,0,0,.636.953,2.886,2.886,0,0,0,.874.661,2.6,2.6,0,0,0,1.161.246,2.667,2.667,0,0,0,.867-.127,1.521,1.521,0,0,0,.6-.359,1.462,1.462,0,0,0,.341-.546,2.154,2.154,0,0,0,.112-.722,1.974,1.974,0,0,0-.346-1.116,2.123,2.123,0,0,0-1.028-.785q-.468-.182-1.072-.4t-1.042-.417a3.376,3.376,0,0,1-1.342-1,2.543,2.543,0,0,1-.478-1.607,2.414,2.414,0,0,1,.237-1.061,2.783,2.783,0,0,1,.677-.879,3.065,3.065,0,0,1,.985-.573,3.434,3.434,0,0,1,1.186-.207,3.544,3.544,0,0,1,1.263.211,6,6,0,0,1,1.017.492l.295-.478h.575l.058,3.312h-.583q-.158-.57-.356-1.09a3.821,3.821,0,0,0-.514-.942,2.348,2.348,0,0,0-.755-.651,2.258,2.258,0,0,0-1.093-.243,1.689,1.689,0,0,0-1.165.429,1.353,1.353,0,0,0-.482,1.048,1.779,1.779,0,0,0,.309,1.073,2.252,2.252,0,0,0,.9.7c.35.165.694.306,1.032.426s.665.247.982.383a7.4,7.4,0,0,1,.831.415A3.083,3.083,0,0,1,857.3,173.589Z" transform="translate(-850.923 -121.713)" fill="#002076"/>
    <path id="パス_3" data-name="パス 3" d="M867.357,178.167h-4.242v-.5a4.564,4.564,0,0,0,.932-.141c.246-.07.37-.157.37-.26a1.108,1.108,0,0,0-.014-.155.762.762,0,0,0-.044-.162l-.845-2.236h-3.582q-.2.492-.328.858c-.084.244-.159.469-.227.675a4.858,4.858,0,0,0-.129.492,1.743,1.743,0,0,0-.036.31c0,.187.151.333.453.436a3.737,3.737,0,0,0,1.021.183v.5h-3.843v-.5a3.238,3.238,0,0,0,.467-.081,1.561,1.561,0,0,0,.461-.18,1.794,1.794,0,0,0,.445-.4,2.562,2.562,0,0,0,.31-.573q.77-1.878,1.7-4.22t1.654-4.17h.575l3.4,8.608a1.664,1.664,0,0,0,.245.443,1.69,1.69,0,0,0,.381.331,1.661,1.661,0,0,0,.431.165,2.33,2.33,0,0,0,.446.074Zm-4.106-4.079-1.545-3.873-1.524,3.873Z" transform="translate(-850.923 -121.713)" fill="#002076"/>
    <path id="パス_4" data-name="パス 4" d="M874.856,168.687a3.329,3.329,0,0,0-.618.112,2.273,2.273,0,0,0-.6.218.99.99,0,0,0-.349.675,7.367,7.367,0,0,0-.09,1.267v7.2h-.626l-6.185-8.063v5.148a6,6,0,0,0,.112,1.33,1.23,1.23,0,0,0,.341.661,1.7,1.7,0,0,0,.684.288,4.32,4.32,0,0,0,.683.141v.5h-4.186v-.5a4.09,4.09,0,0,0,.655-.138,1.762,1.762,0,0,0,.575-.221,1.022,1.022,0,0,0,.345-.6,7,7,0,0,0,.094-1.382V170.41a1.936,1.936,0,0,0-.115-.647,1.2,1.2,0,0,0-.31-.5,2.174,2.174,0,0,0-.7-.4,2.533,2.533,0,0,0-.715-.179v-.5h2.915l5.736,7.607v-4.746a5.925,5.925,0,0,0-.115-1.339,1.055,1.055,0,0,0-.331-.622,2.416,2.416,0,0,0-.658-.26,3.587,3.587,0,0,0-.694-.141v-.5h4.15Z" transform="translate(-850.923 -121.713)" fill="#002076"/>
    <path id="パス_5" data-name="パス 5" d="M881.731,168.687a3.329,3.329,0,0,0-.618.112,2.287,2.287,0,0,0-.6.218.99.99,0,0,0-.349.675,7.367,7.367,0,0,0-.09,1.267v7.306h-.626l-6.185-8.165v5.148a6.065,6.065,0,0,0,.112,1.33,1.23,1.23,0,0,0,.341.661,1.712,1.712,0,0,0,.684.288,4.343,4.343,0,0,0,.683.141v.5H870.9v-.5a4.09,4.09,0,0,0,.655-.138,1.752,1.752,0,0,0,.575-.221,1.022,1.022,0,0,0,.345-.6,6.919,6.919,0,0,0,.094-1.382V170.41a1.936,1.936,0,0,0-.115-.647,1.2,1.2,0,0,0-.31-.5,2.174,2.174,0,0,0-.7-.4,2.533,2.533,0,0,0-.715-.179v-.5h2.915l5.736,7.607v-4.746a5.925,5.925,0,0,0-.115-1.339,1.049,1.049,0,0,0-.331-.622,2.416,2.416,0,0,0-.658-.26,3.573,3.573,0,0,0-.694-.141v-.5h4.15Z" transform="translate(-850.923 -121.713)" fill="#002076"/>
    <path id="パス_6" data-name="パス 6" d="M889.685,169.369a4.9,4.9,0,0,1,1.058,1.663,5.874,5.874,0,0,1,.381,2.156,5.763,5.763,0,0,1-.389,2.159A4.786,4.786,0,0,1,889.657,177a4.658,4.658,0,0,1-1.554,1.041,5.094,5.094,0,0,1-3.851-.024,4.563,4.563,0,0,1-1.55-1.087,4.92,4.92,0,0,1-1.018-1.656,5.812,5.812,0,0,1-.37-2.085,5.73,5.73,0,0,1,.388-2.17,5.053,5.053,0,0,1,1.072-1.649,4.646,4.646,0,0,1,1.572-1.055,4.9,4.9,0,0,1,1.873-.366,4.953,4.953,0,0,1,1.913.373A4.587,4.587,0,0,1,889.685,169.369Zm-1.071,7.075a4.623,4.623,0,0,0,.586-1.449,8.2,8.2,0,0,0,.183-1.807,8.09,8.09,0,0,0-.205-1.885,4.611,4.611,0,0,0-.6-1.463,2.86,2.86,0,0,0-.993-.932,2.756,2.756,0,0,0-1.366-.334,2.664,2.664,0,0,0-1.467.387,3.034,3.034,0,0,0-.985,1.034,4.874,4.874,0,0,0-.536,1.449,8.334,8.334,0,0,0-.177,1.744,8.233,8.233,0,0,0,.187,1.828,4.6,4.6,0,0,0,.59,1.449,2.87,2.87,0,0,0,.978.967,2.725,2.725,0,0,0,1.41.348,2.761,2.761,0,0,0,1.388-.351A2.794,2.794,0,0,0,888.614,176.444Z" transform="translate(-850.923 -121.713)" fill="#002076"/>
    <path id="パス_7" data-name="パス 7" d="M903.381,178.167h-4.509v-.5c.163-.005.373-.021.629-.05a1.633,1.633,0,0,0,.529-.119.926.926,0,0,0,.327-.306.819.819,0,0,0,.1-.433V169.5h-.108l-3.481,8.5h-.36l-3.315-8.678H893.1v5.957a5.8,5.8,0,0,0,.112,1.315,1.211,1.211,0,0,0,.341.647,1.686,1.686,0,0,0,.655.281,4.091,4.091,0,0,0,.647.141v.5h-4.121v-.5a5.376,5.376,0,0,0,.68-.106,1.326,1.326,0,0,0,.55-.232,1.024,1.024,0,0,0,.345-.6,6.821,6.821,0,0,0,.094-1.364v-5.106a2.047,2.047,0,0,0-.108-.724,1.129,1.129,0,0,0-.309-.457,1.427,1.427,0,0,0-.547-.282,2.84,2.84,0,0,0-.64-.105v-.5h3.479l2.924,7.49,2.495-6.266a6.141,6.141,0,0,0,.234-.721,3.3,3.3,0,0,0,.1-.5h3.328v.5a3.881,3.881,0,0,0-.514.063,3.44,3.44,0,0,0-.457.106.524.524,0,0,0-.331.281,1.064,1.064,0,0,0-.086.429v7.194a.907.907,0,0,0,.086.415.733.733,0,0,0,.331.3,1.7,1.7,0,0,0,.46.13,3.977,3.977,0,0,0,.525.067Z" transform="translate(-850.923 -121.713)" fill="#002076"/>
    <path id="パス_8" data-name="パス 8" d="M907.46,178.167h-4.6v-.5l.561-.043a2.078,2.078,0,0,0,.518-.084.709.709,0,0,0,.345-.25.77.77,0,0,0,.108-.439v-7.23a.959.959,0,0,0-.079-.411.646.646,0,0,0-.374-.278,3.863,3.863,0,0,0-.543-.158,3.663,3.663,0,0,0-.536-.088v-.5h4.6v.5a4.705,4.705,0,0,0-.532.053,3.639,3.639,0,0,0-.539.116.564.564,0,0,0-.367.274.948.948,0,0,0-.093.422v7.223a.8.8,0,0,0,.1.411.712.712,0,0,0,.356.285,3.621,3.621,0,0,0,.493.123,3.754,3.754,0,0,0,.578.074Z" transform="translate(-850.923 -121.713)" fill="#002076"/>
    <path id="パス_9" data-name="パス 9" d="M914.732,168.687a1.731,1.731,0,0,0-.388.1,1.418,1.418,0,0,0-.381.172,2.947,2.947,0,0,0-.382.26,4.4,4.4,0,0,0-.388.478q-.561.774-1.036,1.569t-1.186,2.018a3.757,3.757,0,0,0-.353.725,2.808,2.808,0,0,0-.086.794V176.7a.9.9,0,0,0,.1.44.732.732,0,0,0,.356.3,4.421,4.421,0,0,0,.54.137,3.8,3.8,0,0,0,.625.088v.5h-4.775v-.5c.134-.01.336-.027.6-.053a2.309,2.309,0,0,0,.561-.1.658.658,0,0,0,.356-.288.948.948,0,0,0,.1-.45v-2.427a1.233,1.233,0,0,0-.14-.411c-.094-.2-.2-.421-.334-.665q-.432-.816-.957-1.765t-.913-1.625a3.924,3.924,0,0,0-.421-.6,2.115,2.115,0,0,0-.421-.359,1.425,1.425,0,0,0-.413-.162,2.863,2.863,0,0,0-.435-.07v-.5h4.355v.5a4.7,4.7,0,0,0-1.036.1c-.2.056-.3.136-.3.238a.464.464,0,0,0,.043.147c.029.071.07.159.122.267s.137.262.223.419.167.308.244.453q.336.625.689,1.248t.918,1.621q1.128-1.779,1.721-2.774a4.409,4.409,0,0,0,.593-1.191.317.317,0,0,0-.122-.259.906.906,0,0,0-.324-.155,2.384,2.384,0,0,0-.453-.073q-.245-.018-.453-.039v-.5h3.548Z" transform="translate(-850.923 -121.713)" fill="#002076"/>
    <path id="パス_10" data-name="パス 10" d="M921.79,178.167h-4.242v-.5a4.553,4.553,0,0,0,.931-.141q.371-.1.37-.26a1.108,1.108,0,0,0-.014-.155.764.764,0,0,0-.043-.162l-.845-2.236h-3.583q-.2.492-.327.858t-.227.675a4.653,4.653,0,0,0-.13.492,1.743,1.743,0,0,0-.036.31c0,.187.151.333.453.436a3.744,3.744,0,0,0,1.022.183v.5h-3.844v-.5a3.246,3.246,0,0,0,.468-.081,1.554,1.554,0,0,0,.46-.18,1.8,1.8,0,0,0,.446-.4,2.6,2.6,0,0,0,.309-.573q.77-1.878,1.7-4.22t1.655-4.17h.575l3.4,8.608a1.662,1.662,0,0,0,.244.443,1.69,1.69,0,0,0,.381.331,1.654,1.654,0,0,0,.432.165,2.318,2.318,0,0,0,.446.074Zm-4.106-4.079-1.546-3.873-1.524,3.873Z" transform="translate(-850.923 -121.713)" fill="#002076"/>
  </g>
</svg>
